<svg width="14" height="16" viewBox="0 0 14 16" fill="none" xmlns="http://www.w3.org/2000/svg">
<path d="M9.74643 15.3949C9.74556 15.5576 9.68459 15.7134 9.57695 15.8279C9.46931 15.9424 9.32381 16.0063 9.17247 16.0055L4.60729 15.9808C4.45594 15.98 4.31115 15.9145 4.20475 15.7989C4.09836 15.6832 4.03908 15.5268 4.03996 15.364C4.04084 15.2012 4.1018 15.0455 4.20944 14.931C4.31708 14.8164 4.46258 14.7526 4.61392 14.7534L9.1791 14.7781C9.33045 14.7789 9.47525 14.8443 9.58164 14.96C9.68804 15.0757 9.74731 15.2321 9.74643 15.3949ZM13.6009 12.9608C13.5009 13.1479 13.3563 13.3029 13.182 13.4098C13.0078 13.5167 12.8102 13.5718 12.6096 13.5692L1.19667 13.5075C0.996043 13.5061 0.79934 13.4479 0.626387 13.3387C0.453433 13.2295 0.310341 13.0731 0.211533 12.8854C0.112725 12.6977 0.0616921 12.4853 0.0635784 12.2695C0.0654647 12.0538 0.120203 11.8423 0.222277 11.6565C0.622128 10.9253 1.22182 8.85414 1.23647 6.14313C1.24527 4.51551 1.85492 2.95779 2.93131 1.81267C4.0077 0.667549 5.46266 0.0288215 6.97612 0.0370011C8.48957 0.0451806 9.93754 0.699597 11.0015 1.85629C12.0654 3.01298 12.6582 4.57719 12.6494 6.20481C12.6348 8.91505 13.2128 10.9933 13.6047 11.7288C13.7057 11.916 13.7586 12.1288 13.7578 12.3453C13.757 12.5619 13.7026 12.7743 13.6002 12.9608L13.6009 12.9608ZM12.6163 12.3418C12.0704 11.3208 11.4932 8.96412 11.5081 6.19865C11.5152 4.89654 11.0409 3.64517 10.1898 2.71982C9.33862 1.79447 8.18024 1.27094 6.96948 1.2644C5.75872 1.25785 4.59475 1.76883 3.73364 2.68493C2.87253 3.60103 2.3848 4.8472 2.37777 6.1493C2.36282 8.91554 1.75948 11.2659 1.2033 12.2801L12.6163 12.3418Z" fill="#0A3D33"/>
</svg>
